# xmcd
#
# Track frame offsets: 
#        150
#        11866
#        28960
#        42221
#        58356
#        71590
#        87114
#        105595
#        129436
#        141991
#        186502
#
# Disc length: 2636 seconds
#
# Revision: 0
# Processed by: cddbd v1.5.2PL0 Copyright (c) Steve Scherf et al.
# Submitted via: ExactAudioCopy v1.0b6
#
DISCID=a30a4a0b
DTITLE=Marcus Løvdal Band - Marcus Løvdal Band
DYEAR=2015
DGENRE=Blues Rock
TTITLE0=Dripping Love Like Rain
TTITLE1=Ain't doin' this no more
TTITLE2=That ain't Today
TTITLE3=In the deep of the Night
TTITLE4=What i Need
TTITLE5=Blinded by Love
TTITLE6=Southbound Train
TTITLE7=Searchin' Blues
TTITLE8=Today is a special Day
TTITLE9=Restless Man
TTITLE10=Home
EXTD=
EXTT0=
EXTT1=
EXTT2=
EXTT3=
EXTT4=
EXTT5=
EXTT6=
EXTT7=
EXTT8=
EXTT9=
EXTT10=
PLAYORDER=
